<?xml version="1.0" standalone="no"?>
<!DOCTYPE svg PUBLIC "-//W3C//DTD SVG 20010904//EN"
 "http://www.w3.org/TR/2001/REC-SVG-20010904/DTD/svg10.dtd">
<svg version="1.0" xmlns="http://www.w3.org/2000/svg"
 width="799.000000pt" height="799.000000pt" viewBox="0 0 799.000000 799.000000"
 preserveAspectRatio="xMidYMid meet">
<metadata>
Created by potrace 1.14, written by Peter Selinger 2001-2017
</metadata>
<g transform="translate(0.000000,799.000000) scale(0.100000,-0.100000)"
fill="#000000" stroke="none">
<path d="M2060 5650 c-296 -17 -360 -46 -360 -166 0 -40 5 -51 34 -79 19 -18
70 -47 114 -64 123 -50 133 -67 151 -271 25 -277 33 -642 28 -1254 -5 -623
-15 -861 -42 -1025 -16 -99 -33 -122 -114 -152 -74 -27 -136 -64 -156 -91 -24
-36 -20 -111 10 -146 71 -85 155 -89 1470 -73 802 10 1200 10 1685 2 1084 -19
1347 -14 1457 27 89 33 121 127 66 193 -25 29 -151 99 -179 99 -21 0 -64 52
-74 91 -27 99 -41 333 -49 804 -13 836 7 1518 50 1689 13 53 32 69 131 110 97
40 139 80 144 136 8 81 -39 129 -148 149 -123 22 -466 33 -691 22 -305 -16
-372 -34 -403 -108 -21 -48 -10 -103 25 -137 15 -15 63 -42 107 -61 110 -47
129 -66 142 -145 67 -391 66 -2098 -1 -2434 -9 -45 -19 -64 -40 -80 -28 -21
-39 -21 -480 -24 -488 -2 -490 -2 -515 51 -43 89 -62 479 -62 1272 0 829 21
1218 68 1285 10 14 60 45 111 70 116 57 151 93 151 156 0 39 -5 51 -33 79 -61
61 -188 77 -587 78 -400 0 -546 -18 -602 -73 -24 -25 -28 -36 -28 -86 0 -52 3
-59 34 -89 19 -18 71 -47 115 -65 93 -37 116 -60 130 -133 67 -335 67 -2108 0
-2443 -6 -33 -19 -60 -35 -75 l-26 -24 -451 -3 c-334 -2 -459 1 -480 9 -49 20
-65 86 -88 349 -16 189 -23 1346 -10 1675 10 260 31 506 47 551 13 36 39 56
129 98 121 58 145 83 145 153 0 92 -49 122 -230 143 -125 14 -493 20 -660 10z"/>
</g>
</svg>
