<svg width="167" height="53" viewBox="0 0 167 53" fill="none" xmlns="http://www.w3.org/2000/svg">
<mask id="path-1-outside-1_584_390" maskUnits="userSpaceOnUse" x="62" y="0" width="105" height="53" fill="black">
<rect fill="white" x="62" width="105" height="53"/>
<path d="M63 26.132C63 12.252 74.244 1 88.1142 1H140.886C154.756 1 166 12.252 166 26.132C166 40.012 154.756 51.264 140.886 51.264H88.1142C74.244 51.264 63 40.012 63 26.132Z"/>
<path d="M86.9295 21.4794V32.8127H83.8498V19.3668H95.1378V32.8127H92.0582V21.4794H86.9295Z"/>
<path d="M101.719 31.2345C101.421 31.8724 101.045 32.3363 100.589 32.6263C100.134 32.9162 99.5338 33.0612 98.7887 33.0612C98.5155 33.0612 98.2134 33.0446 97.8822 33.0115C97.5593 32.9866 97.3068 32.9494 97.1247 32.8996V30.7871C97.34 30.8616 97.6214 30.8989 97.9691 30.8989C98.1264 30.8989 98.3044 30.8492 98.5031 30.7498C98.7101 30.6421 98.9253 30.3687 99.1488 29.9296C99.3724 29.4823 99.5835 28.7574 99.7822 27.7549C99.8484 27.4318 99.9188 27.0383 99.9933 26.5744C100.076 26.1105 100.163 25.5513 100.254 24.8968C100.353 24.234 100.465 23.4511 100.589 22.5481C100.722 21.6368 100.867 20.5764 101.024 19.3668H110.847V32.8127H107.767V21.4794H103.644C103.421 23.1694 103.218 24.5902 103.036 25.7418C102.862 26.8934 102.709 27.7839 102.576 28.4136C102.32 29.648 102.034 30.5883 101.719 31.2345Z"/>
<path d="M132.442 26.0773C132.442 28.3224 131.891 30.0498 130.79 31.2593C129.689 32.4606 128.145 33.0612 126.158 33.0612C124.328 33.0612 122.88 32.5268 121.812 31.4581C120.752 30.3894 120.152 28.8816 120.011 26.9348H117.478V32.8127H114.398V19.3668H117.478V24.8098H120.048C120.272 22.954 120.913 21.5415 121.973 20.5722C123.033 19.6029 124.453 19.1183 126.233 19.1183C128.294 19.1183 129.842 19.7106 130.877 20.8953C131.92 22.0717 132.442 23.7991 132.442 26.0773ZM129.225 26.0773C129.225 24.3956 128.981 23.1736 128.493 22.4114C128.012 21.6492 127.276 21.2681 126.282 21.2681C125.239 21.2681 124.465 21.6658 123.96 22.4611C123.463 23.2481 123.215 24.4536 123.215 26.0773C123.215 27.6845 123.459 28.8941 123.948 29.706C124.444 30.5178 125.173 30.9238 126.133 30.9238C127.193 30.9238 127.971 30.5261 128.468 29.7308C128.973 28.9272 129.225 27.7094 129.225 26.0773Z"/>
<path d="M140.439 33.0612C138.46 33.0612 136.933 32.4606 135.857 31.2593C134.789 30.0498 134.255 28.3431 134.255 26.1395C134.255 23.9026 134.793 22.1753 135.869 20.9575C136.945 19.7314 138.477 19.1183 140.464 19.1183C141.979 19.1183 143.233 19.5035 144.226 20.274C145.22 21.0362 145.841 22.0925 146.089 23.4428L142.984 23.6168C142.877 22.9126 142.612 22.3534 142.19 21.9392C141.767 21.5167 141.171 21.3054 140.401 21.3054C139.4 21.3054 138.663 21.6865 138.191 22.4487C137.719 23.2109 137.483 24.4038 137.483 26.0276C137.483 27.6597 137.727 28.8775 138.216 29.6811C138.713 30.4847 139.454 30.8865 140.439 30.8865C141.142 30.8865 141.73 30.6752 142.202 30.2527C142.682 29.8302 142.98 29.1923 143.096 28.339L146.188 28.5006C146.064 29.4119 145.745 30.2113 145.232 30.8989C144.719 31.5865 144.052 32.1209 143.233 32.502C142.413 32.8748 141.482 33.0612 140.439 33.0612Z"/>
</mask>
<path d="M86.9295 21.4794V32.8127H83.8498V19.3668H95.1378V32.8127H92.0582V21.4794H86.9295Z" fill="#D4D4D4"/>
<path d="M101.719 31.2345C101.421 31.8724 101.045 32.3363 100.589 32.6263C100.134 32.9162 99.5338 33.0612 98.7887 33.0612C98.5155 33.0612 98.2134 33.0446 97.8822 33.0115C97.5593 32.9866 97.3068 32.9494 97.1247 32.8996V30.7871C97.34 30.8616 97.6214 30.8989 97.9691 30.8989C98.1264 30.8989 98.3044 30.8492 98.5031 30.7498C98.7101 30.6421 98.9253 30.3687 99.1488 29.9296C99.3724 29.4823 99.5835 28.7574 99.7822 27.7549C99.8484 27.4318 99.9188 27.0383 99.9933 26.5744C100.076 26.1105 100.163 25.5513 100.254 24.8968C100.353 24.234 100.465 23.4511 100.589 22.5481C100.722 21.6368 100.867 20.5764 101.024 19.3668H110.847V32.8127H107.767V21.4794H103.644C103.421 23.1694 103.218 24.5902 103.036 25.7418C102.862 26.8934 102.709 27.7839 102.576 28.4136C102.32 29.648 102.034 30.5883 101.719 31.2345Z" fill="#D4D4D4"/>
<path d="M132.442 26.0773C132.442 28.3224 131.891 30.0498 130.79 31.2593C129.689 32.4606 128.145 33.0612 126.158 33.0612C124.328 33.0612 122.88 32.5268 121.812 31.4581C120.752 30.3894 120.152 28.8816 120.011 26.9348H117.478V32.8127H114.398V19.3668H117.478V24.8098H120.048C120.272 22.954 120.913 21.5415 121.973 20.5722C123.033 19.6029 124.453 19.1183 126.233 19.1183C128.294 19.1183 129.842 19.7106 130.877 20.8953C131.92 22.0717 132.442 23.7991 132.442 26.0773ZM129.225 26.0773C129.225 24.3956 128.981 23.1736 128.493 22.4114C128.012 21.6492 127.276 21.2681 126.282 21.2681C125.239 21.2681 124.465 21.6658 123.96 22.4611C123.463 23.2481 123.215 24.4536 123.215 26.0773C123.215 27.6845 123.459 28.8941 123.948 29.706C124.444 30.5178 125.173 30.9238 126.133 30.9238C127.193 30.9238 127.971 30.5261 128.468 29.7308C128.973 28.9272 129.225 27.7094 129.225 26.0773Z" fill="#D4D4D4"/>
<path d="M140.439 33.0612C138.46 33.0612 136.933 32.4606 135.857 31.2593C134.789 30.0498 134.255 28.3431 134.255 26.1395C134.255 23.9026 134.793 22.1753 135.869 20.9575C136.945 19.7314 138.477 19.1183 140.464 19.1183C141.979 19.1183 143.233 19.5035 144.226 20.274C145.22 21.0362 145.841 22.0925 146.089 23.4428L142.984 23.6168C142.877 22.9126 142.612 22.3534 142.19 21.9392C141.767 21.5167 141.171 21.3054 140.401 21.3054C139.4 21.3054 138.663 21.6865 138.191 22.4487C137.719 23.2109 137.483 24.4038 137.483 26.0276C137.483 27.6597 137.727 28.8775 138.216 29.6811C138.713 30.4847 139.454 30.8865 140.439 30.8865C141.142 30.8865 141.73 30.6752 142.202 30.2527C142.682 29.8302 142.98 29.1923 143.096 28.339L146.188 28.5006C146.064 29.4119 145.745 30.2113 145.232 30.8989C144.719 31.5865 144.052 32.1209 143.233 32.502C142.413 32.8748 141.482 33.0612 140.439 33.0612Z" fill="#D4D4D4"/>
<path d="M86.9295 21.4794V20.4794H85.9295V21.4794H86.9295ZM86.9295 32.8127V33.8127H87.9295V32.8127H86.9295ZM83.8498 32.8127H82.8498V33.8127H83.8498V32.8127ZM83.8498 19.3668V18.3668H82.8498V19.3668H83.8498ZM95.1378 19.3668H96.1378V18.3668H95.1378V19.3668ZM95.1378 32.8127V33.8127H96.1378V32.8127H95.1378ZM92.0582 32.8127H91.0582V33.8127H92.0582V32.8127ZM92.0582 21.4794H93.0582V20.4794H92.0582V21.4794ZM101.719 31.2345L100.82 30.7967L100.817 30.8039L100.813 30.8112L101.719 31.2345ZM97.8822 33.0115L97.9818 32.0165L97.9704 32.0153L97.959 32.0144L97.8822 33.0115ZM97.1247 32.8996H96.1247V33.6633L96.8614 33.8644L97.1247 32.8996ZM97.1247 30.7871L97.452 29.8422L96.1247 29.3824V30.7871H97.1247ZM98.5031 30.7498L98.9506 31.6441L98.9577 31.6406L98.9647 31.6369L98.5031 30.7498ZM99.1488 29.9296L100.04 30.3833L100.043 30.3766L99.1488 29.9296ZM99.7822 27.7549L98.8025 27.5541L98.8012 27.5605L99.7822 27.7549ZM99.9933 26.5744L99.0088 26.3987L99.0073 26.4073L99.0059 26.4158L99.9933 26.5744ZM100.254 24.8968L99.265 24.7485L99.2636 24.759L100.254 24.8968ZM100.589 22.5481L99.5997 22.4043L99.5987 22.4119L100.589 22.5481ZM101.024 19.3668V18.3668H100.146L100.032 19.2379L101.024 19.3668ZM110.847 19.3668H111.847V18.3668H110.847V19.3668ZM110.847 32.8127V33.8127H111.847V32.8127H110.847ZM107.767 32.8127H106.767V33.8127H107.767V32.8127ZM107.767 21.4794H108.767V20.4794H107.767V21.4794ZM103.644 21.4794V20.4794H102.768L102.653 21.3483L103.644 21.4794ZM103.036 25.7418L102.048 25.5856L102.047 25.5925L103.036 25.7418ZM102.576 28.4136L101.598 28.2077L101.597 28.21L102.576 28.4136ZM130.79 31.2593L131.527 31.935L131.529 31.9325L130.79 31.2593ZM121.812 31.4581L121.102 32.1622L121.104 32.165L121.812 31.4581ZM120.011 26.9348L121.009 26.8627L120.941 25.9348H120.011V26.9348ZM117.478 26.9348V25.9348H116.478V26.9348H117.478ZM117.478 32.8127V33.8127H118.478V32.8127H117.478ZM114.398 32.8127H113.398V33.8127H114.398V32.8127ZM114.398 19.3668V18.3668H113.398V19.3668H114.398ZM117.478 19.3668H118.478V18.3668H117.478V19.3668ZM117.478 24.8098H116.478V25.8098H117.478V24.8098ZM120.048 24.8098V25.8098H120.935L121.041 24.9294L120.048 24.8098ZM130.877 20.8953L130.124 21.5532L130.129 21.5588L130.877 20.8953ZM128.493 22.4114L127.646 22.9445L127.651 22.951L128.493 22.4114ZM123.96 22.4611L123.116 21.9251L123.114 21.9274L123.96 22.4611ZM123.948 29.706L123.091 30.2215L123.095 30.2278L123.948 29.706ZM128.468 29.7308L127.621 29.1987L127.62 29.2011L128.468 29.7308ZM135.857 31.2593L135.107 31.9212L135.112 31.9266L135.857 31.2593ZM135.869 20.9575L136.618 21.6197L136.62 21.6171L135.869 20.9575ZM144.226 20.274L143.613 21.0642L143.618 21.0674L144.226 20.274ZM146.089 23.4428L146.145 24.4413L147.278 24.3778L147.072 23.262L146.089 23.4428ZM142.984 23.6168L141.996 23.7679L142.133 24.6661L143.04 24.6152L142.984 23.6168ZM142.19 21.9392L141.482 22.6461L141.489 22.653L142.19 21.9392ZM138.216 29.6811L137.361 30.2005L137.365 30.2069L138.216 29.6811ZM142.202 30.2527L141.541 29.502L141.535 29.5077L142.202 30.2527ZM143.096 28.339L143.148 27.3404L142.229 27.2923L142.105 28.2044L143.096 28.339ZM146.188 28.5006L147.179 28.6356L147.326 27.5586L146.24 27.5019L146.188 28.5006ZM143.233 32.502L143.647 33.4123L143.654 33.4088L143.233 32.502ZM88.1142 2H140.886V0H88.1142V2ZM140.886 50.264H88.1142V52.264H140.886V50.264ZM88.1142 50.264C74.797 50.264 64 39.4604 64 26.132H62C62 40.5636 73.6911 52.264 88.1142 52.264V50.264ZM165 26.132C165 39.4604 154.203 50.264 140.886 50.264V52.264C155.309 52.264 167 40.5636 167 26.132H165ZM140.886 2C154.203 2 165 12.8036 165 26.132H167C167 11.7004 155.309 0 140.886 0V2ZM88.1142 0C73.6911 0 62 11.7004 62 26.132H64C64 12.8036 74.797 2 88.1142 2V0ZM85.9295 21.4794V32.8127H87.9295V21.4794H85.9295ZM86.9295 31.8127H83.8498V33.8127H86.9295V31.8127ZM84.8498 32.8127V19.3668H82.8498V32.8127H84.8498ZM83.8498 20.3668H95.1378V18.3668H83.8498V20.3668ZM94.1378 19.3668V32.8127H96.1378V19.3668H94.1378ZM95.1378 31.8127H92.0582V33.8127H95.1378V31.8127ZM93.0582 32.8127V21.4794H91.0582V32.8127H93.0582ZM92.0582 20.4794H86.9295V22.4794H92.0582V20.4794ZM100.813 30.8112C100.572 31.3283 100.305 31.6217 100.052 31.7828L101.126 33.4697C101.784 33.0509 102.271 32.4164 102.625 31.6577L100.813 30.8112ZM100.052 31.7828C99.8075 31.9386 99.4132 32.0612 98.7887 32.0612V34.0612C99.6544 34.0612 100.461 33.8938 101.126 33.4697L100.052 31.7828ZM98.7887 32.0612C98.555 32.0612 98.2867 32.047 97.9818 32.0165L97.7826 34.0065C98.14 34.0423 98.476 34.0612 98.7887 34.0612V32.0612ZM97.959 32.0144C97.6613 31.9915 97.481 31.9603 97.388 31.9349L96.8614 33.8644C97.1327 33.9384 97.4574 33.9817 97.8055 34.0085L97.959 32.0144ZM98.1247 32.8996V30.7871H96.1247V32.8996H98.1247ZM96.7974 31.732C97.158 31.8569 97.5623 31.8989 97.9691 31.8989V29.8989C97.6805 29.8989 97.5219 29.8664 97.452 29.8422L96.7974 31.732ZM97.9691 31.8989C98.3323 31.8989 98.6666 31.7862 98.9506 31.6441L98.0556 29.8555C98.0024 29.8821 97.9682 29.8939 97.9516 29.8985C97.9353 29.903 97.9426 29.8989 97.9691 29.8989V31.8989ZM98.9647 31.6369C99.4726 31.3726 99.8071 30.8409 100.04 30.3833L98.2577 29.476C98.1644 29.6592 98.0884 29.7764 98.0341 29.8454C97.9749 29.9205 97.9729 29.8984 98.0415 29.8627L98.9647 31.6369ZM100.043 30.3766C100.33 29.8033 100.561 28.9682 100.763 27.9494L98.8012 27.5605C98.6058 28.5466 98.4149 29.1612 98.2543 29.4827L100.043 30.3766ZM100.762 27.9558C100.832 27.6141 100.905 27.2056 100.981 26.733L99.0059 26.4158C98.9328 26.871 98.865 27.2495 98.8025 27.5541L100.762 27.9558ZM100.978 26.7501C101.063 26.2697 101.152 25.6971 101.245 25.0346L99.2636 24.759C99.1736 25.4054 99.0887 25.9512 99.0088 26.3987L100.978 26.7501ZM101.243 25.045C101.343 24.3771 101.455 23.59 101.58 22.6843L99.5987 22.4119C99.4748 23.3122 99.3637 24.0909 99.2651 24.7485L101.243 25.045ZM101.579 22.6919C101.712 21.7744 101.858 20.7088 102.016 19.4958L100.032 19.2379C99.8755 20.4439 99.7313 21.4992 99.5997 22.4043L101.579 22.6919ZM101.024 20.3668H110.847V18.3668H101.024V20.3668ZM109.847 19.3668V32.8127H111.847V19.3668H109.847ZM110.847 31.8127H107.767V33.8127H110.847V31.8127ZM108.767 32.8127V21.4794H106.767V32.8127H108.767ZM107.767 20.4794H103.644V22.4794H107.767V20.4794ZM102.653 21.3483C102.43 23.0334 102.228 24.4452 102.048 25.5856L104.023 25.898C104.207 24.7353 104.411 23.3055 104.636 21.6105L102.653 21.3483ZM102.047 25.5925C101.874 26.7376 101.724 27.6061 101.598 28.2077L103.555 28.6194C103.693 27.9618 103.85 27.0491 104.024 25.8911L102.047 25.5925ZM101.597 28.21C101.347 29.4144 101.081 30.2606 100.82 30.7967L102.618 31.6722C102.987 30.916 103.292 29.8815 103.555 28.6171L101.597 28.21ZM131.442 26.0773C131.442 28.167 130.93 29.6198 130.05 30.5861L131.529 31.9325C132.852 30.4797 133.442 28.4779 133.442 26.0773H131.442ZM130.053 30.5836C129.182 31.5339 127.931 32.0612 126.158 32.0612V34.0612C128.359 34.0612 130.196 33.3872 131.527 31.935L130.053 30.5836ZM126.158 32.0612C124.534 32.0612 123.361 31.5939 122.519 30.7513L121.104 32.165C122.398 33.4598 124.123 34.0612 126.158 34.0612V32.0612ZM122.522 30.754C121.675 29.9001 121.137 28.6435 121.009 26.8627L119.014 27.0069C119.166 29.1198 119.829 30.8788 121.102 32.1622L122.522 30.754ZM120.011 25.9348H117.478V27.9348H120.011V25.9348ZM116.478 26.9348V32.8127H118.478V26.9348H116.478ZM117.478 31.8127H114.398V33.8127H117.478V31.8127ZM115.398 32.8127V19.3668H113.398V32.8127H115.398ZM114.398 20.3668H117.478V18.3668H114.398V20.3668ZM116.478 19.3668V24.8098H118.478V19.3668H116.478ZM117.478 25.8098H120.048V23.8098H117.478V25.8098ZM121.041 24.9294C121.245 23.2381 121.812 22.0744 122.648 21.3101L121.298 19.8344C120.014 21.0086 119.299 22.67 119.056 24.6902L121.041 24.9294ZM122.648 21.3101C123.482 20.5473 124.64 20.1183 126.233 20.1183V18.1183C124.265 18.1183 122.584 18.6586 121.298 19.8344L122.648 21.3101ZM126.233 20.1183C128.1 20.1183 129.334 20.6486 130.124 21.5532L131.63 20.2375C130.351 18.7727 128.487 18.1183 126.233 18.1183V20.1183ZM130.129 21.5588C130.95 22.485 131.442 23.9355 131.442 26.0773H133.442C133.442 23.6626 132.89 21.6585 131.625 20.2319L130.129 21.5588ZM130.225 26.0773C130.225 24.3442 129.982 22.8822 129.335 21.8718L127.651 22.951C127.98 23.465 128.225 24.4469 128.225 26.0773H130.225ZM129.339 21.8784C128.654 20.7916 127.577 20.2681 126.282 20.2681V22.2681C126.974 22.2681 127.371 22.5068 127.647 22.9444L129.339 21.8784ZM126.282 20.2681C124.94 20.2681 123.827 20.8058 123.116 21.9251L124.804 22.9972C125.104 22.5258 125.538 22.2681 126.282 22.2681V20.2681ZM123.114 21.9274C122.467 22.9536 122.215 24.3879 122.215 26.0773H124.215C124.215 24.5192 124.46 23.5427 124.806 22.9948L123.114 21.9274ZM122.215 26.0773C122.215 27.7545 122.464 29.1801 123.091 30.2215L124.805 29.1904C124.454 28.6081 124.215 27.6146 124.215 26.0773H122.215ZM123.095 30.2278C123.775 31.34 124.829 31.9238 126.133 31.9238V29.9238C125.517 29.9238 125.114 29.6957 124.801 29.1841L123.095 30.2278ZM126.133 31.9238C127.485 31.9238 128.61 31.3908 129.316 30.2605L127.62 29.2011C127.332 29.6614 126.901 29.9238 126.133 29.9238V31.9238ZM129.314 30.2629C129.968 29.2224 130.225 27.7782 130.225 26.0773H128.225C128.225 27.6405 127.977 28.632 127.621 29.1987L129.314 30.2629ZM140.439 32.0612C138.675 32.0612 137.446 31.5346 136.601 30.592L135.112 31.9266C136.42 33.3865 138.246 34.0612 140.439 34.0612V32.0612ZM136.606 30.5974C135.75 29.6282 135.255 28.189 135.255 26.1395H133.255C133.255 28.4973 133.827 30.4713 135.107 31.9212L136.606 30.5974ZM135.255 26.1395C135.255 24.0545 135.756 22.5959 136.618 21.6197L135.12 20.2953C133.83 21.7547 133.255 23.7508 133.255 26.1395H135.255ZM136.62 21.6171C137.466 20.6538 138.696 20.1183 140.464 20.1183V18.1183C138.257 18.1183 136.424 18.8089 135.117 20.2978L136.62 21.6171ZM140.464 20.1183C141.804 20.1183 142.829 20.4559 143.613 21.0642L144.839 19.4838C143.637 18.5511 142.154 18.1183 140.464 18.1183V20.1183ZM143.618 21.0674C144.395 21.6638 144.897 22.4914 145.105 23.6237L147.072 23.262C146.784 21.6935 146.044 20.4086 144.835 19.4806L143.618 21.0674ZM146.033 22.4444L142.928 22.6184L143.04 24.6152L146.145 24.4413L146.033 22.4444ZM143.973 23.4657C143.84 22.5926 143.496 21.8201 142.89 21.2254L141.489 22.653C141.728 22.8868 141.914 23.2326 141.996 23.7679L143.973 23.4657ZM142.897 21.2323C142.237 20.5722 141.357 20.3054 140.401 20.3054V22.3054C140.986 22.3054 141.298 22.4612 141.482 22.646L142.897 21.2323ZM140.401 20.3054C139.102 20.3054 138.019 20.8267 137.341 21.9223L139.041 22.9751C139.307 22.5463 139.698 22.3054 140.401 22.3054V20.3054ZM137.341 21.9223C136.72 22.9252 136.483 24.3476 136.483 26.0276H138.483C138.483 24.46 138.718 23.4966 139.041 22.9751L137.341 21.9223ZM136.483 26.0276C136.483 27.7249 136.731 29.1634 137.361 30.2005L139.07 29.1617C138.724 28.5916 138.483 27.5944 138.483 26.0276H136.483ZM137.365 30.2069C138.054 31.3203 139.125 31.8865 140.439 31.8865V29.8865C139.782 29.8865 139.372 29.6491 139.067 29.1553L137.365 30.2069ZM140.439 31.8865C141.359 31.8865 142.193 31.6031 142.869 30.9977L141.535 29.5077C141.267 29.7474 140.926 29.8865 140.439 29.8865V31.8865ZM142.863 31.0035C143.578 30.3741 143.95 29.4821 144.087 28.4736L142.105 28.2044C142.01 28.9026 141.787 29.2863 141.542 29.502L142.863 31.0035ZM143.044 29.3376L146.136 29.4992L146.24 27.5019L143.148 27.3404L143.044 29.3376ZM145.197 28.3655C145.094 29.1213 144.835 29.7587 144.431 30.3007L146.033 31.4971C146.655 30.6639 147.034 29.7024 147.179 28.6356L145.197 28.3655ZM144.431 30.3007C144.022 30.8485 143.489 31.2801 142.811 31.5952L143.654 33.4088C144.616 32.9617 145.416 32.3246 146.033 31.4971L144.431 30.3007ZM142.819 31.5917C142.148 31.8967 141.362 32.0612 140.439 32.0612V34.0612C141.602 34.0612 142.678 33.8529 143.647 33.4122L142.819 31.5917Z" fill="#D4D4D4" mask="url(#path-1-outside-1_584_390)"/>
<path d="M25.8027 0.675325C25.812 0.59646 25.8414 0.561812 25.8648 0.542894C25.8945 0.518859 25.942 0.5 26 0.5C26.058 0.5 26.1055 0.518859 26.1352 0.542894C26.1586 0.561812 26.188 0.59646 26.1973 0.675325L27.0154 7.56954C28.0989 16.7014 35.2986 23.9011 44.4304 24.9846L51.3246 25.8027C51.3246 25.8027 51.3246 25.8027 51.3246 25.8027C51.4035 25.812 51.4382 25.8414 51.4571 25.8648C51.4811 25.8946 51.5 25.942 51.5 26C51.5 26.058 51.4811 26.1055 51.4571 26.1352C51.4382 26.1586 51.4035 26.188 51.3247 26.1973C51.3246 26.1973 51.3246 26.1973 51.3246 26.1973L44.4304 27.0154C35.2986 28.0989 28.0989 35.2986 27.0154 44.4304L26.1973 51.3246C26.1973 51.3246 26.1973 51.3246 26.1973 51.3247C26.188 51.4035 26.1586 51.4382 26.1352 51.4571C26.1055 51.4811 26.058 51.5 26 51.5C25.942 51.5 25.8946 51.4811 25.8648 51.4571C25.8414 51.4382 25.812 51.4035 25.8027 51.3246C25.8027 51.3246 25.8027 51.3246 25.8027 51.3246L24.9846 44.4304C23.9011 35.2986 16.7014 28.0989 7.56954 27.0154L0.675325 26.1973C0.59646 26.188 0.561812 26.1586 0.542894 26.1352C0.518859 26.1055 0.5 26.058 0.5 26C0.5 25.942 0.518859 25.8945 0.542894 25.8648C0.561812 25.8414 0.59646 25.812 0.675325 25.8027L7.56954 24.9846C16.7014 23.9011 23.9011 16.7014 24.9846 7.56954L25.8027 0.675325Z" stroke="#D4D4D4"/>
</svg>
